<mxfile host="app.diagrams.net" modified="2023-12-13T15:15:28.955Z" agent="Mozilla/5.0 (Windows NT 10.0; Win64; x64) AppleWebKit/537.36 (KHTML, like Gecko) Chrome/120.0.0.0 Safari/537.36" version="22.1.7" etag="kuJ29pa87UQFMksVwNNi" type="github">
  <diagram name="Seite-1" id="4qsizp8y5dEVkx0iQMWr">
    <mxGraphModel>
      <root>
        <mxCell id="0" />
        <mxCell id="1" parent="0" />
      </root>
    </mxGraphModel>
  </diagram>
</mxfile>
